<?xml version="1.0" encoding="utf-8"?>
<!-- Generator: Adobe Illustrator 16.0.0, SVG Export Plug-In . SVG Version: 6.00 Build 0)  -->
<!DOCTYPE svg PUBLIC "-//W3C//DTD SVG 1.1//EN" "http://www.w3.org/Graphics/SVG/1.1/DTD/svg11.dtd">
<svg version="1.1" id="Layer_1" xmlns="http://www.w3.org/2000/svg" xmlns:xlink="http://www.w3.org/1999/xlink" x="0px" y="0px"
	 width="55.5px" height="52px" viewBox="0 0 55.5 52" enable-background="new 0 0 55.5 52" xml:space="preserve">
<path fill-rule="evenodd" clip-rule="evenodd" fill="#9C9C9C" d="M5.237,32.082l8.513,5.07c3.059,1.823,4.221,1.514,4.353,0.368
	c0.247-2.154-1.015-3.204,0.783-5.374c1.539-1.861,3.947-1.816,5.742-0.746c1.796,1.069,2.981,3.164,2.079,5.404
	c-1.053,2.614-2.577,2.004-4.354,3.248c-0.945,0.661-0.663,1.831,2.395,3.652l8.542,5.088l5.176-8.69
	c1.822-3.059,2.99-3.34,3.653-2.395c1.243,1.776,0.632,3.3,3.247,4.353c2.238,0.903,4.334-0.283,5.404-2.078
	c1.07-1.796,1.115-4.203-0.745-5.742c-2.171-1.798-3.222-0.536-5.375-0.783c-1.146-0.133-1.454-1.295,0.368-4.353l4.981-8.363
	l-8.526-5.08c-3.059-1.821-4.222-1.514-4.353-0.367c-0.248,2.155,1.015,3.204-0.782,5.375c-1.541,1.86-3.947,1.815-5.742,0.746
	c-1.796-1.07-2.982-3.165-2.08-5.405c1.053-2.614,2.578-2.004,4.353-3.248c0.945-0.661,0.663-1.83-2.395-3.653L21.947,4.03
	l-5.079,8.527c-1.822,3.058-2.99,3.341-3.652,2.395c-1.244-1.777-0.633-3.3-3.248-4.353c-2.239-0.903-4.335,0.282-5.405,2.079
	c-1.069,1.795-1.114,4.201,0.746,5.741c2.171,1.798,3.22,0.536,5.375,0.784c1.147,0.132,1.455,1.294-0.367,4.352L5.237,32.082
	L5.237,32.082z"/>
</svg>
